<svg width="286" height="158" viewBox="0 0 286 158" fill="none" xmlns="http://www.w3.org/2000/svg">
<path d="M206.535 158H73.2154L81.305 114.843C81.5861 113.342 82.2715 111.947 83.2874 110.807C84.3032 109.667 85.6109 108.826 87.0695 108.375C88.528 107.924 90.0822 107.879 91.5643 108.246C93.0464 108.612 94.4002 109.377 95.4799 110.457L115.727 130.704C117.3 132.277 119.433 133.161 121.657 133.161H158.093C160.317 133.161 162.45 132.277 164.023 130.704L184.27 110.457C185.35 109.377 186.704 108.612 188.187 108.246C189.669 107.879 191.224 107.924 192.683 108.376C194.139 108.827 195.446 109.667 196.461 110.805C197.476 111.943 198.162 113.336 198.445 114.835L206.535 158Z" fill="black"/>
<path d="M58.5119 89.872C66.5332 89.872 70.5439 88.976 70.5439 87.184V2.83197C70.5439 1.21064 66.5759 0.399971 58.6399 0.399971C50.7039 0.399971 46.7359 1.21064 46.7359 2.83197V43.024L26.2559 3.59998C25.4879 2.31997 23.3119 1.46664 19.7279 1.03997C16.2292 0.527972 13.1572 0.271973 10.5119 0.271973C3.77057 0.271973 0.399902 0.911972 0.399902 2.19197V87.824C0.399902 89.36 4.32524 90.128 12.1759 90.128C20.1119 90.128 24.0799 89.36 24.0799 87.824V48.016L45.4559 87.952C46.1386 89.232 50.4906 89.872 58.5119 89.872Z" fill="black"/>
<path fill-rule="evenodd" clip-rule="evenodd" d="M131.144 86.544C125.768 89.7013 118.856 91.28 110.408 91.28C101.96 91.28 94.8346 88.4213 89.0319 82.704C83.2292 76.9013 80.3279 68.9226 80.3279 58.768C80.3279 48.528 83.1012 40.2933 88.6479 34.064C94.2799 27.8346 101.363 24.72 109.896 24.72C118.429 24.72 125 26.896 129.608 31.248C134.301 35.6 136.648 40.8906 136.648 47.12C136.648 60.944 128.712 67.856 112.84 67.856H104.008C104.008 70.416 104.691 72.208 106.056 73.232C107.507 74.1706 109.597 74.64 112.328 74.64C118.301 74.64 123.976 73.2746 129.352 70.544C129.437 70.4586 129.821 71.056 130.504 72.336C132.552 76.0053 133.576 79.12 133.576 81.68C133.576 84.1546 132.765 85.776 131.144 86.544ZM115.144 49.552C115.144 45.968 113.395 44.176 109.896 44.176C108.275 44.176 106.867 44.688 105.672 45.712C104.563 46.6506 104.008 48.0586 104.008 49.936V53.904H110.92C113.736 53.904 115.144 52.4533 115.144 49.552Z" fill="black"/>
<path d="M175.474 70.8C169.159 70.8 166.002 66.6186 166.002 58.256C166.002 53.648 166.727 50.32 168.178 48.272C169.629 46.224 171.335 45.2 173.298 45.2C175.346 45.2 178.034 46.864 181.362 50.192C182.301 51.216 183.069 51.728 183.666 51.728C184.349 51.728 184.861 51.6853 185.202 51.6C187.677 50.7466 189.682 47.5893 191.218 42.128C191.901 39.4826 192.242 37.264 192.242 35.472C192.242 33.5946 191.858 32.1866 191.09 31.248C187.591 26.896 181.319 24.72 172.274 24.72C163.314 24.72 156.103 27.8346 150.642 34.064C145.266 40.2933 142.578 48.4853 142.578 58.64C142.578 68.7093 145.309 76.688 150.77 82.576C156.317 88.3786 163.015 91.28 170.866 91.28C178.717 91.28 184.903 89.872 189.426 87.056C189.853 86.544 190.066 85.52 190.066 83.984C190.066 82.3626 189.639 79.376 188.786 75.024C188.018 70.5866 186.994 68.368 185.714 68.368C182.983 69.9893 179.57 70.8 175.474 70.8Z" fill="black"/>
<path fill-rule="evenodd" clip-rule="evenodd" d="M204.764 82.448C199.473 76.56 196.828 68.4106 196.828 58C196.828 47.5893 199.473 39.44 204.764 33.552C210.14 27.664 217.351 24.72 226.396 24.72C235.441 24.72 242.609 27.664 247.9 33.552C253.191 39.44 255.836 47.5893 255.836 58C255.836 68.4106 253.191 76.56 247.9 82.448C242.609 88.336 235.441 91.28 226.396 91.28C217.351 91.28 210.14 88.336 204.764 82.448ZM226.396 46.096C221.617 46.096 219.228 50.0213 219.228 57.872C219.228 65.7226 221.617 69.648 226.396 69.648C231.26 69.648 233.692 65.7226 233.692 57.872C233.692 50.0213 231.26 46.096 226.396 46.096Z" fill="black"/>
<path d="M273.717 91.28C281.824 91.28 285.877 90.9813 285.877 90.384V66.96C285.877 66.5333 281.824 66.32 273.717 66.32C265.696 66.32 261.685 66.704 261.685 67.472V90.512C261.685 91.024 265.696 91.28 273.717 91.28Z" fill="black"/>
</svg>
